PathFileType	4	(X/Y/Z)	/Users/itak/Documents/Research/Walk-IL/dataset/trc/00203_00008.trc
DataRate	CameraRate	NumFrames	NumMarkers	Units	OrigDataRate	OrigDataStartFrame	OrigNumFrames
100.000000	100.000000	4	55	mm	100.000000	128	512
Frame#	Time	RPSI			LPSI			L3			STRN			T10			C7			CLAV			RBAK			LBAK			LSHO			LUPA			LAEL			LAOL			LWTS			LWPS			LFRA			LIFD			LHPS			LHTS			RSHO			RUPA			RAEL			RAOL			RWTS			RWPS			RFRA			RIFD			RHTS			RHPS			RBHD			LFHD			RFHD			LBHD			LHIP			RHIP			RASI			LASI			LKNE			LTHI			LANK			LTIP			LTOE			LMT1			LMT5			LHEE			RKNE			RANK			RTIP			RTOE			RMT1			RMT5			RHEE			RTHI			*53			*54			
		X1	Y1	Z1	X2	Y2	Z2	X3	Y3	Z3	X4	Y4	Z4	X5	Y5	Z5	X6	Y6	Z6	X7	Y7	Z7	X8	Y8	Z8	X9	Y9	Z9	X10	Y10	Z10	X11	Y11	Z11	X12	Y12	Z12	X13	Y13	Z13	X14	Y14	Z14	X15	Y15	Z15	X16	Y16	Z16	X17	Y17	Z17	X18	Y18	Z18	X19	Y19	Z19	X20	Y20	Z20	X21	Y21	Z21	X22	Y22	Z22	X23	Y23	Z23	X24	Y24	Z24	X25	Y25	Z25	X26	Y26	Z26	X27	Y27	Z27	X28	Y28	Z28	X29	Y29	Z29	X30	Y30	Z30	X31	Y31	Z31	X32	Y32	Z32	X33	Y33	Z33	X34	Y34	Z34	X35	Y35	Z35	X36	Y36	Z36	X37	Y37	Z37	X38	Y38	Z38	X39	Y39	Z39	X40	Y40	Z40	X41	Y41	Z41	X42	Y42	Z42	X43	Y43	Z43	X44	Y44	Z44	X45	Y45	Z45	X46	Y46	Z46	X47	Y47	Z47	X48	Y48	Z48	X49	Y49	Z49	X50	Y50	Z50	X51	Y51	Z51	X52	Y52	Z52	X53	Y53	Z53	X54	Y54	Z54	X55	Y55	Z55	

129	1.28	-1623.148803710938	1046.58349609375	-592.6241455078125	-1613.46484375	1048.739990234375	-716.5978393554688	-1613.3740234375	1086.201416015625	-653.5092163085938	-1337.8271484375	1269.186767578125	-639.6598510742188	-1632.218383789062	1243.486572265625	-666.0191650390625	-1542.253295898438	1506.563598632812	-674.1688842773438	-1353.0576171875	1385.23095703125	-651.0103759765625	-1634.319580078125	1338.70556640625	-569.1730346679688	-1540.6552734375	1480.977661132812	-776.0980834960938	-1456.519409179688	1460.23779296875	-846.1484985351562	-1484.87158203125	1329.001220703125	-923.2232666015625	-1478.140747070312	1108.041625976562	-934.7175903320312	-1541.57421875	1099.332397460938	-874.0303344726562	-1401.27490234375	867.0999755859375	-877.8433227539062	-1470.161376953125	853.7002563476562	-936.95654296875	-1470.954833984375	996.8001708984375	-944.5723876953125	-1417.29833984375	691.8533325195312	-843.235107421875	-1458.212890625	782.2379760742188	-927.67236328125	-1392.594360351562	787.1951293945312	-894.2725830078125	-1497.615234375	1479.377075195312	-487.0056457519531	-1528.905639648438	1415.121215820312	-419.9183349609375	-1572.352172851562	1124.709106445312	-376.3405456542969	-1555.695556640625	1117.360107421875	-472.5560302734375	-1433.501098632812	900.40234375	-350.5964050292969	-1518.417724609375	878.7675170898438	-334.907958984375	-1554.648559570312	1052.03515625	-353.2062377929688	-1400.1640625	712.2598266601562	-370.8048400878906	-1407.942138671875	807.0621948242188	-335.425048828125	-1487.802124023438	796.6044311523438	-329.9537353515625	-1486.619384765625	1658.284423828125	-599.6363525390625	-1294.865966796875	1705.131713867188	-691.5364990234375	-1321.67236328125	1702.672119140625	-564.9443969726562	-1465.353149414062	1668.007690429688	-735.4866333007812	-1512.5947265625	977.554443359375	-830.7085571289062	-1484.039428710938	999.8272094726562	-457.7682189941406	-1394.244140625	1019.117614746094	-512.6071166992188	-1386.541381835938	1003.850646972656	-771.4286499023438	-1556.4423828125	481.7875671386719	-759.8256225585938	-1530.83984375	621.0635986328125	-796.5739135742188	-1697.832397460938	37.88055419921875	-720.6436767578125	-1625.086547851562	265.0234985351562	-753.1194458007812	-1475.881469726562	39.48335647583008	-708.1204223632812	-1523.321411132812	40.50188064575195	-657.5943603515625	-1591.524047851562	31.68382835388184	-767.2561645507812	-1743.27978515625	38.55799102783203	-647.4932861328125	-1260.043212890625	548.606201171875	-461.0721435546875	-1334.487060546875	54.99055862426758	-442.3798522949219	-1238.776977539062	424.1976013183594	-466.3617248535156	-1120.005981445312	88.18644714355469	-451.152587890625	-1163.946411132812	71.19977569580078	-500.1384582519531	-1229.538452148438	62.42652130126953	-396.1687316894531	-1374.37451171875	47.87453079223633	-516.6987915039062	-1364.30615234375	801.5042724609375	-442.321533203125	nan	nan	nan	nan	nan	nan	
130	1.29	-1618.7841796875	1045.584228515625	-592.8126220703125	-1609.259643554688	1047.820678710938	-716.7600708007812	-1609.07568359375	1085.329833984375	-653.667724609375	-1333.196533203125	1267.8984375	-639.646728515625	-1627.650024414062	1242.735717773438	-665.8884887695312	-1537.247436523438	1505.6826171875	-673.6549072265625	-1348.2275390625	1383.991943359375	-650.7701416015625	-1629.485107421875	1337.75634765625	-568.8711547851562	-1535.670043945312	1480.242797851562	-775.5950927734375	-1451.666625976562	1459.472045898438	-845.7421264648438	-1480.303466796875	1328.463745117188	-923.01708984375	-1474.148315429688	1107.536865234375	-934.9627685546875	-1537.642944335938	1098.906372070312	-874.3114013671875	-1398.058837890625	866.2564697265625	-878.4232788085938	-1466.934936523438	853.1685791015625	-937.642822265625	-1467.297485351562	996.2915649414062	-945.0046997070312	-1414.620239257812	690.8872680664062	-844.0949096679688	-1455.199829101562	781.6661376953125	-928.481689453125	-1389.927612304688	786.2833251953125	-895.0897827148438	-1492.58251953125	1478.09130859375	-486.5551452636719	-1523.874755859375	1413.797607421875	-419.48828125	-1567.693969726562	1123.655883789062	-375.7289733886719	-1551.099609375	1116.052734375	-471.9813537597656	-1430.48046875	898.4772338867188	-349.5116882324219	-1515.52880859375	877.6707153320312	-333.45849609375	-1550.45947265625	1051.0400390625	-352.4272766113281	-1399.1337890625	709.7802124023438	-369.025390625	-1405.713256835938	804.974853515625	-334.0315551757812	-1485.604125976562	795.2744140625	-328.2100830078125	-1482.224609375	1656.834594726562	-599.2249755859375	-1290.35107421875	1704.554321289062	-690.4012451171875	-1317.5478515625	1701.938232421875	-563.9012451171875	-1460.508666992188	1666.667114257812	-734.9539794921875	-1508.677490234375	976.6034545898438	-831.138427734375	-1479.1484375	998.9832763671875	-458.3082885742188	-1389.548095703125	1018.179809570312	-513.22119140625	-1382.587036132812	1002.912780761719	-772.0350952148438	-1554.265014648438	481.3157653808594	-759.8364868164062	-1528.066650390625	620.4302368164062	-796.6734008789062	-1697.827758789062	37.92382049560547	-720.559814453125	-1624.086303710938	264.8772888183594	-753.0867309570312	-1475.806274414062	39.42262649536133	-708.1213989257812	-1523.229858398438	40.56946563720703	-657.687744140625	-1591.526123046875	31.64055824279785	-767.2984008789062	-1743.22705078125	38.63577270507812	-647.3875122070312	-1255.602294921875	548.2434692382812	-461.1977233886719	-1311.652099609375	51.8248176574707	-442.7546081542969	-1230.897827148438	424.714599609375	-466.3862609863281	-1098.268676757812	92.13410949707031	-452.0856628417969	-1141.948364257812	74.09744262695312	-500.9896850585938	-1206.763916015625	62.49100875854492	-397.0760803222656	-1351.3671875	43.47512817382812	-517.546142578125	-1359.48486328125	800.9533081054688	-442.7157592773438	nan	nan	nan	nan	nan	nan	
131	1.3	-1614.241943359375	1044.4736328125	-592.8855590820312	-1604.940673828125	1046.803466796875	-716.8071899414062	-1604.64501953125	1084.349609375	-653.7212524414062	-1328.438598632812	1266.53515625	-639.595947265625	-1622.954223632812	1241.888671875	-665.6893310546875	-1532.11767578125	1504.701416015625	-673.0770263671875	-1343.274536132812	1382.684326171875	-650.4796752929688	-1624.522094726562	1336.697143554688	-568.5109252929688	-1530.572143554688	1479.421630859375	-775.032470703125	-1446.68212890625	1458.627197265625	-845.2804565429688	-1475.605590820312	1327.846557617188	-922.754638671875	-1470.011108398438	1106.955810546875	-935.1272583007812	-1533.5556640625	1098.401489257812	-874.5020751953125	-1394.666625976562	865.342529296875	-878.9241333007812	-1463.543579101562	852.5598754882812	-938.2382202148438	-1463.492065429688	995.705322265625	-945.3538208007812	-1411.8701171875	689.7798461914062	-844.8780517578125	-1452.042236328125	781.0298461914062	-929.2012939453125	-1387.085083007812	785.2996215820312	-895.830322265625	-1487.431030273438	1476.706176757812	-486.042236328125	-1518.709106445312	1412.362182617188	-418.9983520507812	-1562.8505859375	1122.489990234375	-375.090087890625	-1546.301635742188	1114.627807617188	-471.3754577636719	-1427.343627929688	896.4130859375	-348.36083984375	-1512.515991210938	876.4888916015625	-331.9312133789062	-1546.103149414062	1049.94287109375	-351.613525390625	-1398.142333984375	707.1064453125	-367.0916748046875	-1403.396606445312	802.7672729492188	-332.5348205566406	-1483.329956054688	793.8673095703125	-326.3528747558594	-1477.698852539062	1655.300537109375	-598.7527465820312	-1285.677978515625	1703.865234375	-689.1854248046875	-1313.270751953125	1701.08544921875	-562.7720336914062	-1455.510864257812	1665.252319335938	-734.3502807617188	-1504.639282226562	975.6015014648438	-831.4727172851562	-1474.064819335938	998.037109375	-458.7727661132812	-1384.641357421875	1017.164123535156	-513.8104858398438	-1378.491943359375	1001.941528320312	-772.6235961914062	-1551.970458984375	480.8335266113281	-759.8313598632812	-1525.174072265625	619.790283203125	-796.7353515625	-1697.8193359375	37.9649658203125	-720.4752807617188	-1623.031982421875	264.7476196289062	-753.0352783203125	-1475.728759765625	39.36975479125977	-708.1325073242188	-1523.132568359375	40.66321563720703	-657.8075561523438	-1591.526977539062	31.58242988586426	-767.35302734375	-1743.176147460938	38.74113845825195	-647.2830200195312	-1251.267822265625	547.6484985351562	-461.2469177246094	-1289.02197265625	49.15923690795898	-443.3017883300781	-1223.172607421875	425.1334228515625	-466.3696594238281	-1076.96435546875	96.379150390625	-453.0477294921875	-1120.330932617188	77.37060546875	-501.9137573242188	-1184.278076171875	62.9262809753418	-398.1567687988281	-1328.62939453125	39.77444839477539	-518.434326171875	-1354.6103515625	800.1759643554688	-443.031005859375	nan	nan	nan	nan	nan	nan	
132	1.31	-1609.517822265625	1043.256713867188	-592.841064453125	-1600.49951171875	1045.69384765625	-716.739990234375	-1600.064208984375	1083.261596679688	-653.6627807617188	-1323.548461914062	1265.100830078125	-639.5047607421875	-1618.122924804688	1240.945434570312	-665.4147338867188	-1526.860595703125	1503.624267578125	-672.4353637695312	-1338.199951171875	1381.312744140625	-650.1380004882812	-1619.422485351562	1335.525024414062	-568.0951538085938	-1525.365112304688	1478.515502929688	-774.411865234375	-1441.559692382812	1457.706787109375	-844.7596435546875	-1470.770629882812	1327.15185546875	-922.4373779296875	-1465.72509765625	1106.297607421875	-935.2085571289062	-1529.305053710938	1097.817993164062	-874.6001586914062	-1391.103515625	864.358154296875	-879.3500366210938	-1459.98828125	851.877197265625	-938.7424926757812	-1459.533569335938	995.0430297851562	-945.61767578125	-1409.073974609375	688.5397338867188	-845.5931396484375	-1448.736572265625	780.32568359375	-929.8287963867188	-1384.04541015625	784.247802734375	-896.4850463867188	-1482.154663085938	1475.227905273438	-485.4659118652344	-1513.409545898438	1410.827270507812	-418.4510498046875	-1557.8447265625	1121.21728515625	-374.4421691894531	-1541.304321289062	1113.095336914062	-470.7493591308594	-1424.095581054688	894.2283935546875	-347.1432189941406	-1509.382446289062	875.22412109375	-330.3563537597656	-1541.593383789062	1048.749145507812	-350.7839965820312	-1397.139892578125	704.28271484375	-365.010986328125	-1400.990356445312	800.4551391601562	-330.9385986328125	-1480.98046875	792.3909301757812	-324.4143981933594	-1473.033569335938	1653.681884765625	-598.215087890625	-1280.844970703125	1703.069702148438	-687.888916015625	-1308.847290039062	1700.115478515625	-561.5568237304688	-1450.363525390625	1663.772216796875	-733.68017578125	-1500.47119140625	974.5552368164062	-831.7086791992188	-1468.801879882812	996.9808959960938	-459.1504516601562	-1379.542358398438	1016.058959960938	-514.3505249023438	-1374.235229492188	1000.934814453125	-773.1728515625	-1549.548095703125	480.3374633789062	-759.8136596679688	-1522.152099609375	619.141357421875	-796.7616577148438	-1697.805786132812	38.0062370300293	-720.3916625976562	-1621.901489257812	264.6184692382812	-752.96240234375	-1475.6474609375	39.3249626159668	-708.1558227539062	-1523.03515625	40.78743362426758	-657.9528198242188	-1591.529418945312	31.50534629821777	-767.4207763671875	-1743.127075195312	38.88012313842773	-647.184814453125	-1246.998657226562	546.8378295898438	-461.2431335449219	-1266.728393554688	47.01326370239258	-444.0533142089844	-1215.584716796875	425.4555053710938	-466.3347473144531	-1056.200561523438	100.8907241821289	-454.0371398925781	-1099.215576171875	80.988037109375	-502.9109802246094	-1162.194213867188	63.73722076416016	-399.4247436523438	-1306.338989257812	36.81402206420898	-519.3088989257812	-1349.691650390625	799.1716918945312	-443.2630615234375	nan	nan	nan	nan	nan	nan	
